<?xml version="1.0" standalone="no"?>
<!DOCTYPE svg PUBLIC "-//W3C//DTD SVG 20010904//EN"
 "http://www.w3.org/TR/2001/REC-SVG-20010904/DTD/svg10.dtd">
<svg version="1.0" xmlns="http://www.w3.org/2000/svg"
 width="500.000000pt" height="500.000000pt" viewBox="0 0 500.000000 500.000000"
 preserveAspectRatio="xMidYMid meet">
<metadata>
Created by potrace 1.11, written by Peter Selinger 2001-2013
</metadata>
<g transform="translate(0.000000,500.000000) scale(0.100000,-0.100000)"
fill="#000000" stroke="none">
<path d="M1291 4420 c-4 -3 -7 -204 -6 -447 l0 -443 292 0 c227 0 293 3 294
13 1 12 0 138 0 167 -1 14 -25 16 -168 15 l-168 0 -3 348 c-1 191 -6 347 -10
348 -31 4 -225 3 -231 -1z"/>
<path d="M2023 4420 c-17 -5 -18 -28 -18 -447 l0 -443 122 0 123 0 0 445 c0
389 -2 445 -15 446 -72 3 -197 3 -212 -1z"/>
<path d="M2449 4425 c-1 0 -2 -201 -3 -447 l-1 -448 120 0 121 0 -1 165 c0
103 3 166 10 168 5 2 65 3 133 2 l122 -1 1 53 c1 29 1 62 1 73 0 11 0 31 -1
44 l-1 25 -122 -1 c-68 0 -128 1 -133 1 -6 1 -10 34 -10 84 l1 82 145 3 145 3
-1 88 c0 49 -3 93 -7 97 -6 5 -224 9 -519 9z"/>
<path d="M3122 4415 c-4 -5 -7 -207 -7 -447 l0 -438 267 0 268 0 0 99 0 99
-140 0 c-77 0 -143 2 -147 6 -5 5 -7 56 -4 139 1 23 2 23 131 22 83 -1 131 2
133 9 2 6 3 49 3 96 l-1 85 -129 2 c-71 1 -131 4 -133 7 -5 4 -6 45 -4 104 l1
32 145 0 146 0 -3 97 -3 96 -258 1 c-163 1 -261 -3 -265 -9z"/>
<path d="M1809 2925 c-1 0 -2 -201 -3 -447 l-1 -448 122 0 123 0 0 445 c0 245
-3 445 -7 446 -6 0 -206 4 -234 4z"/>
<path d="M2247 2918 c-9 -5 -12 -126 -12 -448 l0 -440 107 0 c105 0 108 1 109
23 3 78 -1 483 -6 536 -2 35 -3 62 0 60 5 -6 144 -271 243 -466 l77 -153 162
0 162 0 0 445 c0 382 -2 445 -14 446 -8 0 -53 1 -100 1 -47 0 -90 -1 -96 -1
-7 -1 -10 -92 -7 -305 l3 -303 -20 36 c-12 20 -63 117 -114 216 -95 183 -182
347 -187 354 -6 7 -296 6 -307 -1z"/>
<path d="M1160 1426 c-162 -35 -265 -148 -299 -327 -13 -71 -6 -242 12 -300
48 -148 142 -237 287 -270 110 -26 279 -7 370 42 122 65 191 212 191 409 0
232 -83 371 -261 435 -57 21 -226 27 -300 11z m182 -195 c32 -2 86 -60 102
-109 34 -104 22 -278 -25 -341 -31 -43 -87 -65 -149 -59 -65 6 -98 31 -130 94
-22 44 -25 61 -25 164 0 104 3 120 25 165 31 59 89 95 148 90 20 -2 45 -3 54
-4z"/>
<path d="M99 1420 c-1 -3 -2 -204 -3 -447 l-1 -443 122 0 123 0 0 148 0 147
58 0 c66 -1 159 18 204 41 90 46 143 152 141 281 -1 150 -86 246 -239 269 -54
8 -403 11 -405 4z m374 -218 c38 -39 28 -126 -19 -157 -14 -9 -45 -18 -69 -21
l-45 -4 0 106 0 105 58 -6 c34 -3 64 -13 75 -23z"/>
<path d="M1897 1418 c-9 -5 -12 -126 -12 -448 l0 -440 267 0 267 0 -2 98 -2
97 -145 5 -145 5 0 78 c0 61 3 77 15 78 8 1 69 2 135 3 l120 1 1 85 c0 47 -2
91 -4 98 -3 10 -35 12 -128 11 -67 0 -126 1 -131 4 -4 3 -6 35 -5 71 l4 66
143 0 144 0 -2 96 -2 97 -253 1 c-140 1 -259 -2 -265 -6z"/>
<path d="M2520 1422 c-6 -2 -10 -45 -10 -101 l0 -97 98 1 c53 1 102 0 109 -3
9 -3 12 -70 12 -265 0 -144 0 -299 0 -344 l1 -83 120 0 120 0 2 347 3 348 105
0 105 0 2 98 c1 84 -1 97 -15 98 -64 2 -644 3 -652 1z"/>
<path d="M3323 1420 c-17 -5 -18 -28 -18 -447 l0 -443 122 0 123 0 0 164 c0
151 1 164 18 161 9 -2 22 -4 29 -4 6 -1 46 -61 89 -133 42 -73 84 -145 93
-160 l16 -28 139 0 138 0 -17 27 c-10 16 -68 102 -129 193 l-111 165 48 39
c86 67 119 180 88 294 -24 85 -112 148 -236 168 -48 8 -366 11 -392 4z m350
-195 c27 -11 48 -60 42 -97 -9 -53 -45 -80 -109 -86 l-56 -4 0 102 0 102 53
-5 c28 -3 60 -8 70 -12z"/>
<path d="M4082 1422 c-22 -3 -20 -8 39 -120 34 -64 65 -121 69 -127 4 -5 42
-76 84 -157 l76 -147 0 -170 0 -171 124 0 124 0 -1 173 0 172 51 95 c28 52 94
174 146 270 52 96 93 177 91 179 -2 2 -57 4 -122 5 -91 1 -121 -2 -134 -14 -9
-8 -47 -82 -85 -163 l-68 -148 -51 108 c-28 59 -62 132 -75 161 -13 28 -26 52
-29 53 -19 3 -220 3 -239 1z"/>
</g>
</svg>
